<svg xmlns="http://www.w3.org/2000/svg" width="18" height="17" viewBox="0 0 18 17"><g fill="none" fill-rule="evenodd" stroke="none" stroke-width="1"><g fill="#1A1A1A" fill-rule="nonzero"><path d="M16.668 2.381c1.776 1.842 1.776 4.828 0 6.67L9 17 1.332 9.05c-1.776-1.841-1.776-4.827 0-6.669a4.434 4.434 0 016.431 0L9 3.663l1.237-1.282a4.434 4.434 0 016.431 0zm-.516.827l-.137-.15a3.531 3.531 0 00-4.98-.141l-.145.142L9 5.017 7.11 3.058a3.533 3.533 0 00-5.125 0C.617 4.478.571 6.748 1.848 8.223l.137.15L9 15.647l7.015-7.274c1.368-1.419 1.414-3.69.137-5.165z"></path></g></g></svg>